<svg width="25" height="18" viewBox="0 0 25 18" fill="none" xmlns="http://www.w3.org/2000/svg">
<path d="M9.44434 3.03906H3.9707V7.81836H8.8623L8.33301 10.8574H3.9707V18H0V0H10L9.44434 3.03906ZM18.6631 0C19.9353 0 21.0361 0.181835 21.9658 0.544922C22.9119 0.908056 23.355 1.02586 24.167 1.91211L23.2188 4.76758C22.0607 3.81029 20.2782 2.97083 18.957 2.9707C18.2557 2.9707 17.7007 3.11988 17.293 3.41699C16.8854 3.69752 16.6818 4.10987 16.6816 4.6543C16.6816 5.03391 16.7708 5.34812 16.9502 5.5957C17.1296 5.82671 17.4478 6.04916 17.9043 6.26367C18.361 6.47825 19.0466 6.73414 19.96 7.03125C21.6888 7.59242 22.9608 8.2861 23.7764 9.11133C24.5919 9.92013 25 11.0761 25 12.5781C24.9999 13.6508 24.7306 14.5996 24.1924 15.4248C23.6541 16.2336 22.8794 16.8689 21.8682 17.3311C20.8569 17.7767 19.6579 18 18.2715 18C16.8851 18 15.6536 17.7767 14.5771 17.3311C13.517 16.8854 12.7666 16.5455 12 15.8027L12.749 12.625C13.4015 13.1862 15.189 14.278 15.874 14.5586C16.5754 14.8392 17.3339 14.9795 18.1494 14.9795C18.9812 14.9795 19.6334 14.7976 20.1064 14.4346C20.5957 14.055 20.8408 13.5352 20.8408 12.875C20.8408 12.4459 20.7506 12.0911 20.5713 11.8105C20.3919 11.5134 20.082 11.2487 19.6416 11.0176C19.2012 10.7865 18.565 10.5394 17.7334 10.2754C15.8576 9.69767 14.5199 8.98732 13.7207 8.14551C12.938 7.30379 12.5469 6.23938 12.5469 4.95215C12.5469 3.96196 12.8073 3.09523 13.3291 2.35254C13.851 1.59329 14.5772 1.01529 15.5068 0.619141C16.4366 0.206492 17.4887 5.13999e-06 18.6631 0Z" fill="#676767"/>
</svg>
