<svg width="15" height="26" viewBox="0 0 15 26" fill="none" xmlns="http://www.w3.org/2000/svg">
<path fill-rule="evenodd" clip-rule="evenodd" d="M14.9593 6.93078C14.8832 2.89771 11.4979 0 7.34423 0C3.18622 0 0 3.13315 0 7.12698C0 11.5516 3.07027 13.1578 6.76186 14.492C10.0649 15.6675 11.658 16.7244 11.658 19.2306C11.658 21.2667 10.0649 22.9506 7.65576 22.9506C5.36258 22.9506 3.34199 21.3452 3.34199 18.839C3.34199 18.0302 3.55867 17.5703 3.74378 17.1774C3.88179 16.8845 4.00225 16.6288 4.00225 16.2936C4.00225 15.3893 3.38093 14.724 2.3702 14.724C1.20457 14.724 0 16.4863 0 18.9925C0 23.0256 3.4614 26.0017 7.65576 26C11.9297 26 15 22.8276 15 18.873C15 14.3307 11.7748 12.8029 8.23814 11.5106C4.9325 10.2985 3.34198 9.24336 3.34025 6.85317C3.34025 4.66005 5.05365 3.05467 7.30357 3.05467C9.71357 3.05467 11.6173 4.74202 11.6563 7.00926C11.6952 8.06701 12.4334 8.69312 13.2883 8.69312C14.1805 8.69312 14.9983 8.0644 14.9593 6.93078Z" fill="#676767"/>
</svg>
